<?xml version="1.0" encoding="UTF-8" standalone="no"?>
<svg
   xmlns:dc="http://purl.org/dc/elements/1.1/"
   xmlns:cc="http://creativecommons.org/ns#"
   xmlns:rdf="http://www.w3.org/1999/02/22-rdf-syntax-ns#"
   xmlns:svg="http://www.w3.org/2000/svg"
   xmlns="http://www.w3.org/2000/svg"
   xmlns:sodipodi="http://sodipodi.sourceforge.net/DTD/sodipodi-0.dtd"
   xmlns:inkscape="http://www.inkscape.org/namespaces/inkscape"
   version="1.1"
   width="658"
   height="217"
   id="svg2"
   inkscape:version="0.91 r13725"
   sodipodi:docname="Google_2015_logo (1)-nocolor-resize.svg">
  <metadata
     id="metadata13">
    <rdf:RDF>
      <cc:Work
         rdf:about="">
        <dc:format>image/svg+xml</dc:format>
        <dc:type
           rdf:resource="http://purl.org/dc/dcmitype/StillImage" />
        <dc:title></dc:title>
      </cc:Work>
    </rdf:RDF>
  </metadata>
  <defs
     id="defs11">
    <filter
       style="color-interpolation-filters:sRGB;"
       inkscape:label="Greyscale"
       id="filter3341">
      <feColorMatrix
         values="0.21 0.72 0.072 0 0 0.21 0.72 0.072 0 0 0.21 0.72 0.072 0 0 0 0 0 1 0 "
         id="feColorMatrix3343" />
    </filter>
    <filter
       style="color-interpolation-filters:sRGB;"
       inkscape:label="Greyscale"
       id="filter3345">
      <feColorMatrix
         values="0.21 0.72 0.072 0 0 0.21 0.72 0.072 0 0 0.21 0.72 0.072 0 0 0 0 0 1 0 "
         id="feColorMatrix3347" />
    </filter>
    <filter
       style="color-interpolation-filters:sRGB;"
       inkscape:label="Greyscale"
       id="filter3349">
      <feColorMatrix
         values="0.21 0.72 0.072 0 0 0.21 0.72 0.072 0 0 0.21 0.72 0.072 0 0 0 0 0 1 0 "
         id="feColorMatrix3351" />
    </filter>
    <filter
       style="color-interpolation-filters:sRGB;"
       inkscape:label="Greyscale"
       id="filter3353">
      <feColorMatrix
         values="0.21 0.72 0.072 0 0 0.21 0.72 0.072 0 0 0.21 0.72 0.072 0 0 0 0 0 1 0 "
         id="feColorMatrix3355" />
    </filter>
    <filter
       style="color-interpolation-filters:sRGB;"
       inkscape:label="Greyscale"
       id="filter3357">
      <feColorMatrix
         values="0.21 0.72 0.072 0 0 0.21 0.72 0.072 0 0 0.21 0.72 0.072 0 0 0 0 0 1 0 "
         id="feColorMatrix3359" />
    </filter>
    <filter
       style="color-interpolation-filters:sRGB;"
       inkscape:label="Greyscale"
       id="filter3361">
      <feColorMatrix
         values="0.21 0.72 0.072 0 0 0.21 0.72 0.072 0 0 0.21 0.72 0.072 0 0 0 0 0 1 0 "
         id="feColorMatrix3363" />
    </filter>
  </defs>
  <sodipodi:namedview
     pagecolor="#ffffff"
     bordercolor="#666666"
     borderopacity="1"
     objecttolerance="10"
     gridtolerance="10"
     guidetolerance="10"
     inkscape:pageopacity="0"
     inkscape:pageshadow="2"
     inkscape:window-width="1920"
     inkscape:window-height="1017"
     id="namedview9"
     showgrid="false"
     inkscape:zoom="0.98994949"
     inkscape:cx="221.54576"
     inkscape:cy="65.98282"
     inkscape:window-x="-8"
     inkscape:window-y="-8"
     inkscape:window-maximized="1"
     inkscape:current-layer="svg2" />
  <path
     style="fill:#4285f4;fill-opacity:1;filter:url(#filter3361)"
     d="m 238.14374,91.287411 -41.71545,0 0,12.378649 29.58515,0 c -1.46156,17.35824 -15.90318,24.76088 -29.53505,24.76088 -17.44054,0 -32.65951,-13.72241 -32.65951,-32.955819 0,-18.73634 14.50755,-33.16587 32.6978,-33.16587 14.0341,0 22.30383,8.94644 22.30383,8.94644 l 8.66731,-8.97543 c 0,0 -11.12472,-12.384731 -31.41417,-12.384731 C 170.23741,49.891172 150.25,71.696861 150.25,95.249971 c 0,23.079299 18.80147,45.583889 46.48211,45.583889 24.34541,0 42.16635,-16.67759 42.16635,-41.339699 0,-5.20289 -0.7554,-8.20997 -0.7554,-8.20997 z"
     id="path2998"
     inkscape:connector-curvature="0" />
  <path
     style="fill:#ea4335;fill-opacity:1;filter:url(#filter3357)"
     d="m 272.31556,82.322721 c -17.11704,0 -29.38405,13.38209 -29.38405,28.989319 0,15.83806 11.8984,29.46885 29.58516,29.46885 16.01126,0 29.12853,-12.23765 29.12853,-29.12852 0,-19.359379 -15.25833,-29.329649 -29.32964,-29.329649 z m 0.1702,11.48115 c 8.41753,0 16.39417,6.805369 16.39417,17.771199 0,10.73322 -7.94264,17.73255 -16.43282,17.73255 -9.32862,0 -16.68797,-7.47134 -16.68797,-17.81772 0,-10.12451 7.26809,-17.686029 16.72662,-17.686029 z"
     id="path3000"
     inkscape:connector-curvature="0" />
  <path
     style="fill:#fbbc05;fill-opacity:1;filter:url(#filter3353)"
     d="m 336.22175,82.322721 c -17.11705,0 -29.38404,13.38209 -29.38404,28.989319 0,15.83806 11.8984,29.46885 29.58515,29.46885 16.01126,0 29.12852,-12.23765 29.12852,-29.12852 0,-19.359379 -15.25832,-29.329649 -29.32963,-29.329649 z m 0.1702,11.48115 c 8.41752,0 16.39417,6.805369 16.39417,17.771199 0,10.73322 -7.94265,17.73255 -16.43283,17.73255 -9.32862,0 -16.68796,-7.47134 -16.68796,-17.81772 0,-10.12451 7.26809,-17.686029 16.72662,-17.686029 z"
     id="path3005"
     inkscape:connector-curvature="0" />
  <path
     style="fill:#4285f4;fill-opacity:1;filter:url(#filter3349)"
     d="m 398.90407,82.353501 c -15.71138,0 -28.06104,13.76069 -28.06104,29.205819 0,17.59335 14.31752,29.26022 27.79014,29.26022 8.33056,0 12.76012,-3.30678 16.03058,-7.1024 l 0,5.76366 c 0,10.08442 -6.12294,16.12326 -15.36496,16.12326 -8.92819,0 -13.40642,-6.63861 -14.96275,-10.40577 l -11.2335,4.69616 c 3.9851,8.42647 12.00754,17.21402 26.28928,17.21402 15.62121,0 27.52712,-9.83929 27.52712,-30.47479 l 0,-52.522739 -12.25483,0 0,4.95131 c -3.76824,-4.06061 -8.9214,-6.70804 -15.76004,-6.70804 z m 1.13727,11.45788 c 7.70288,0 15.61261,6.577419 15.61261,17.809849 0,11.41709 -7.89291,17.7093 -15.78295,17.7093 -8.37602,0 -16.1698,-6.80108 -16.1698,-17.60087 0,-11.22169 8.09438,-17.918279 16.33978,-17.918279 z"
     id="path3007"
     inkscape:connector-curvature="0" />
  <path
     style="fill:#ea4335;fill-opacity:1;filter:url(#filter3345)"
     d="m 481.40811,82.283721 c -14.8203,0 -27.26409,11.7914 -27.26409,29.190429 0,18.4107 13.87021,29.32965 28.68764,29.32965 12.36684,0 19.957,-6.76566 24.48677,-12.82741 l -10.10411,-6.72306 c -2.62195,4.06919 -7.00542,8.04606 -14.32075,8.04606 -8.21712,0 -11.99537,-4.4997 -14.33613,-8.8584 L 507.75,104.17851 505.71526,99.412571 c -3.78613,-9.33293 -12.61805,-17.12706 -24.30568,-17.12706 z m 0.51059,11.24137 c 5.34031,0 9.1837,2.83932 10.81588,6.24354 l -26.17333,10.939709 c -1.1284,-8.46941 6.89556,-17.183249 15.35745,-17.183249 z"
     id="path3011"
     inkscape:connector-curvature="0" />
  <path
     style="fill:#34a853;fill-opacity:1;filter:url(#filter3341)"
     d="m 435.45921,139.06855 12.87392,0 0,-86.154199 -12.87392,0 z"
     id="path3015"
     inkscape:connector-curvature="0" />
</svg>
